<svg width="48" height="48" viewBox="0 0 48 48" fill="none" xmlns="http://www.w3.org/2000/svg">
<g clip-path="url(#clip0_414_19357)">
<path d="M20.9371 35.8035C17.1751 34.1871 14.0811 30.937 12.2663 27.2923C12.091 26.9457 11.788 26.6806 11.421 26.553C11.0541 26.4253 10.652 26.4451 10.2994 26.6082C9.94684 26.7712 9.6713 27.0648 9.53089 27.427C9.39048 27.7892 9.39616 28.1917 9.54673 28.5498L11.2096 32.4928L4.55075 27.9841L3.93401 18.9067C3.90835 18.5273 3.73957 18.1719 3.46182 17.9123C3.18406 17.6527 2.81807 17.5083 2.43788 17.5083H2.13348C1.80456 17.5086 1.48483 17.6169 1.22342 17.8165C0.962009 18.0162 0.773376 18.2961 0.686501 18.6134C-0.197118 21.8202 -0.673543 29.7379 2.11868 33.1466L13.0794 41.2281L13.7529 45.4187C15.1745 46.6907 19.5519 48.2989 23.2185 46.9898C23.2193 41.1911 23.032 36.9635 20.9371 35.8035Z" fill="#33B591"/>
<path d="M47.3129 18.6134C47.2261 18.296 47.0374 18.016 46.776 17.8163C46.5145 17.6167 46.1946 17.5085 45.8657 17.5083H45.5615C45.1813 17.5082 44.8152 17.6526 44.5374 17.9122C44.2596 18.1718 44.0908 18.5273 44.0651 18.9067L43.4489 27.9841L36.7901 32.4928L38.4548 28.5498C38.5951 28.2163 38.6101 27.8432 38.4969 27.4994C38.3837 27.1557 38.1499 26.8645 37.8388 26.6795C37.6622 26.5736 37.4656 26.5054 37.2613 26.479C37.0571 26.4526 36.8496 26.4686 36.6518 26.5262C36.4541 26.5837 36.2703 26.6814 36.1121 26.8133C35.9539 26.9451 35.8246 27.1082 35.7323 27.2923C33.9178 30.9388 30.8243 34.1861 27.0615 35.8035C24.9664 36.9635 24.7793 41.1911 24.7793 46.9898C28.4456 48.2994 32.823 46.6907 34.2449 45.4187L34.9185 41.2281L45.8805 33.1471C48.6727 29.7379 48.197 21.8207 47.3129 18.6134Z" fill="#33B591"/>
<path d="M30.5468 27.2188V23.6925H34.0731C37.4236 23.6925 40.1842 21.1759 40.5734 17.9302H31.7327L29.1875 22.668C29.1144 22.8041 29.0029 22.9156 28.8667 22.9886C28.7306 23.0616 28.576 23.0929 28.4222 23.0785C28.2684 23.0641 28.1222 23.0046 28.002 22.9076C27.8818 22.8106 27.7929 22.6803 27.7464 22.533L24.7848 13.1699V26.4131C24.785 26.5918 24.7242 26.7652 24.6126 26.9047C24.5009 27.0442 24.345 27.1415 24.1707 27.1805C23.9963 27.2194 23.8138 27.1977 23.6534 27.119C23.493 27.0403 23.3642 26.9092 23.2884 26.7474L18.819 17.2461L17.3964 19.7986C17.3262 19.9223 17.2243 20.0249 17.1011 20.0957C16.9779 20.1666 16.838 20.2032 16.6959 20.2016C16.5535 20.199 16.4146 20.1578 16.2939 20.0824C16.1732 20.007 16.0752 19.9003 16.0104 19.7735L15.0687 17.9302H7.42578C7.81395 21.1759 10.5747 23.6925 13.9245 23.6925H17.4513V27.2188C17.4513 30.8349 20.3831 33.7666 23.9992 33.7666C27.615 33.7666 30.5468 30.8349 30.5468 27.2188Z" fill="#33B591"/>
<path d="M16.2501 16.7872L16.741 17.7482L18.1944 15.1434C18.2648 15.0172 18.3687 14.9129 18.4946 14.8419C18.6205 14.7709 18.7635 14.736 18.9079 14.741C19.0523 14.746 19.1926 14.7907 19.3133 14.8702C19.4339 14.9497 19.5304 15.061 19.5919 15.1917L23.2154 22.8969V8.08022C23.2151 7.8925 23.2821 7.71088 23.4041 7.56824C23.5262 7.42561 23.6952 7.33139 23.8807 7.30264C24.0662 7.2739 24.2559 7.31253 24.4154 7.41154C24.5749 7.51055 24.6936 7.66339 24.7502 7.8424L28.6855 20.2852L30.5719 16.7737C30.6391 16.6486 30.739 16.5441 30.8609 16.4712C30.9828 16.3983 31.1222 16.3599 31.2642 16.3599H40.5734C40.1847 13.1145 37.4239 10.5995 34.0731 10.5995H30.5471V7.07055C30.5471 3.45443 27.6153 0.522949 23.9994 0.522949C20.3833 0.522949 17.4516 3.45443 17.4516 7.07055V10.5971H13.9248C10.575 10.5971 7.81421 13.1135 7.42578 16.3575H15.5498C15.6948 16.3576 15.837 16.3977 15.9606 16.4735C16.0842 16.5494 16.1844 16.6579 16.2501 16.7872Z" fill="#33B591"/>
</g>
<defs>
<clipPath id="clip0_414_19357">
<rect width="47.9993" height="46.9538" fill="white" transform="translate(0 0.522949)"/>
</clipPath>
</defs>
</svg>
